PathFileType	4	(X/Y/Z)	pose_F01_0-73.trc
DataRate	CameraRate	NumFrames	NumMarkers	Units	OrigDataRate	OrigDataStartFrame	OrigNumFrames
30	30	8	21	m	30	36	73
Frame#	Time	CHip			RHip			RKnee			RAnkle			RBigToe			RSmallToe			RHeel			LHip			LKnee			LAnkle			LBigToe			LSmallToe			LHeel			Neck			Nose			RShoulder			RElbow			RWrist			LShoulder			LElbow			LWrist			
		X1	Y1	Z1	X2	Y2	Z2	X3	Y3	Z3	X4	Y4	Z4	X5	Y5	Z5	X6	Y6	Z6	X7	Y7	Z7	X8	Y8	Z8	X9	Y9	Z9	X10	Y10	Z10	X11	Y11	Z11	X12	Y12	Z12	X13	Y13	Z13	X14	Y14	Z14	X15	Y15	Z15	X16	Y16	Z16	X17	Y17	Z17	X18	Y18	Z18	X19	Y19	Z19	X20	Y20	Z20	X21	Y21	Z21	
36	1.2	-0.24657769364264043	1.8812479742799921	-0.38026243526107323	-0.25325212533451785	1.8765365609604794	-0.31200107111493564	-0.2678603404119931	1.738392302704554	-0.4018005575490024													-0.23269966776724535	1.885560137515993	-0.44592364646552857	-0.2239904012681617	1.743295009776881	-0.46936387648411254	-0.21285407339885243	1.5931069629138388	-0.5325250741275281	-0.21713251698556976	1.5701776069570488	-0.5653884135632984	-0.20511519612556547	1.5837659567468367	-0.5791690837350569	-0.21240932311635427	1.5814475621863993	-0.5043245206780703	-0.24097868765237576	2.043393289730517	-0.38684775341796956	-0.2504738283489215	2.1081994714829966	-0.4185856251935952	-0.25690985182238524	2.0348568288387856	-0.29549999017043554	-0.2921223929552996	2.052100398488169	-0.21713356064944775	-0.273423269216342	2.0998337858630323	-0.29046501100410843	-0.22630136021426492	2.049213585344639	-0.4735445490261209	-0.20030876380154827	2.088145433823365	-0.6282014839741409	-0.2239048964745483	2.130917933012067	-0.5378249170967715
37	1.2333333333333334	-0.2455182786280811	1.8816594088218794	-0.3853797153978644	-0.25403702020923985	1.876873415322147	-0.3150387538801373	-0.2678603404119931	1.738392302704554	-0.4018005575490024													-0.232534211377466	1.8870203963113268	-0.44607043415520276	-0.224938128207438	1.743422243719678	-0.4725696357110766	-0.21285407339885243	1.5931069629138388	-0.5325250741275281	-0.21442633768451297	1.5691527752928427	-0.5638572073119731	-0.2051085341909828	1.5839461087958673	-0.5791661106116551	-0.21240932311635427	1.5814475621863993	-0.5043245206780703	-0.24095947071999957	2.043478611642142	-0.3868911240002791	-0.25046400573498495	2.1081888588489575	-0.4186599029054601	-0.25680505788237196	2.0360501517958656	-0.29553138780870863	-0.293655001980176	2.0535128593590253	-0.2151535377855734	-0.27067446357264247	2.0978711715789866	-0.28847905241935884	-0.22629149795938508	2.0492617728669678	-0.47354404020439195	-0.20236832352559148	2.0893880130231106	-0.626560294878569	-0.2229975542983526	2.131958336728862	-0.5353547606091283
38	1.2666666666666666	-0.24639225047612234	1.8827279335687637	-0.3802602002252993	-0.2529844915924697	1.876520310603252	-0.31177111086981485	-0.2678603404119931	1.738392302704554	-0.4018005575490024													-0.23159497501644877	1.8867475946075913	-0.44292439082684326	-0.22492063291766756	1.7403347202943225	-0.47229907638475543	-0.21285407339885243	1.5931069629138388	-0.5325250741275281	-0.21458447391001856	1.5676263191625226	-0.5679347140269223	-0.2052316806734957	1.5842096044832916	-0.5791956981580433	-0.21240932311635427	1.5814475621863993	-0.5043245206780703	-0.24092269407186848	2.0434543597975465	-0.3868799844869583	-0.2504431475161303	2.1082874132729286	-0.41864120718902914	-0.2551648920587346	2.0364223689911354	-0.2981884452554075	-0.2954747520842033	2.0582465610000376	-0.21525201666757968	-0.2750857557901956	2.103767805966898	-0.29665153275006767	-0.22627172497556833	2.04926377875301	-0.47349930000053164	-0.19935327332839065	2.0893762050446627	-0.6257407398834138	-0.22388521358140293	2.130928332177429	-0.5378259396045774
39	1.3	-0.24645077110929606	1.8824210234466978	-0.38023092802079694	-0.2548963270321028	1.877271553957174	-0.3099980956314799	-0.2678603404119931	1.738392302704554	-0.4018005575490024													-0.23174896179846788	1.8853393907688667	-0.44277488407748095	-0.22519628737774264	1.7421194911377484	-0.47222886936568437	-0.21285407339885243	1.5931069629138388	-0.5325250741275281	-0.21509034623410372	1.5702432079421385	-0.5675917291128769	-0.20517593106169046	1.5841461164309685	-0.5792037904103433	-0.21240932311635427	1.5814475621863993	-0.5043245206780703	-0.24107714468619384	2.0424058839165995	-0.38695163928107573	-0.25037121169548526	2.110532366002776	-0.4190007946358551	-0.2580512728762661	2.03413064820851	-0.29860752033321114	-0.29414049510542356	2.059165723331723	-0.21186666049212938	-0.2718642442655374	2.1024656721938437	-0.29396757530466167	-0.2263037696189535	2.049241115046788	-0.473527919681073	-0.20015417677314654	2.0919260337618053	-0.6291087966426835	-0.2200358621380978	2.131833936439394	-0.5344305139174932
40	1.3333333333333333	-0.2440874831835971	1.8826213066840225	-0.3734937078356496	-0.2545094247854364	1.8759457059400038	-0.3094975235571259	-0.2678603404119931	1.738392302704554	-0.4018005575490024													-0.23146951638847857	1.8856544534263826	-0.44246796650494435	-0.22479123822429353	1.7418294897588618	-0.4726884035604714	-0.21285407339885243	1.5931069629138388	-0.5325250741275281	-0.21452146015701848	1.5672072012605283	-0.56795463730567	-0.20505171410786793	1.5835333207480018	-0.5792850055511781	-0.21240932311635427	1.5814475621863993	-0.5043245206780703	-0.24097620719189156	2.043398690594318	-0.3868294517180319	-0.24752135402728614	2.110318979376322	-0.41807710096430456	-0.2578492963960175	2.0347263836398954	-0.29789880065194824	-0.29413060709602645	2.0590925227876893	-0.2119216659115284	-0.2717919994142197	2.1050853539550256	-0.2945172488657285	-0.22527052133459344	2.050204332581116	-0.470385345004172	-0.19725377736420743	2.092099130900085	-0.6281852857516061	-0.21906718152499158	2.1317153575204344	-0.5314535185637653
41	1.3666666666666667	-0.24305365564978962	1.8826285724867664	-0.3700201626888555	-0.25447481625228646	1.8758928145983573	-0.30926647964254644	-0.2678603404119931	1.738392302704554	-0.4018005575490024													-0.2315079028503909	1.8860025329735641	-0.4423309096845228	-0.2243942214727173	1.7447543958840588	-0.4734058081435757	-0.21285407339885243	1.5931069629138388	-0.5325250741275281	-0.21675899703739732	1.570870287340908	-0.566048652443669	-0.20486244430329764	1.5853738430245312	-0.5798364562102417	-0.21240932311635427	1.5814475621863993	-0.5043245206780703	-0.2408308819273333	2.0444319468851044	-0.38669621320533326	-0.2473946464962774	2.111441480949995	-0.41802001615541745	-0.25500258240751816	2.0346883982756707	-0.29689608240124005	-0.29411949780724683	2.0597703031312755	-0.21189850412344832	-0.27310876373621523	2.1053785861054983	-0.2984404456945011	-0.22522841830274876	2.0501968283299616	-0.470374161142155	-0.197292369866524	2.0906258658546544	-0.6284438747643297	-0.217035527589165	2.131807756550662	-0.5335902349557143
42	1.4	-0.24344977470170062	1.8821389971586704	-0.37038557805953337	-0.2550291781394283	1.877525222803689	-0.30996295394168755	-0.2678603404119931	1.738392302704554	-0.4018005575490024													-0.2307924057494512	1.8868075486506528	-0.43965975243033806	-0.2248157887711698	1.745598451832792	-0.47311087067009716	-0.21285407339885243	1.5931069629138388	-0.5325250741275281	-0.2158950130320406	1.576736620778991	-0.5528332120519703	-0.20677677791590793	1.5867655151845184	-0.5780971062572761	-0.21240932311635427	1.5814475621863993	-0.5043245206780703	-0.24088938173380525	2.0447145757191785	-0.38747542700733145	-0.24658048821259507	2.1118095291863597	-0.42323579013503326	-0.25510697544684213	2.0387609287994395	-0.29878170381650143	-0.29273925637507636	2.057225693133272	-0.21393578906548757	-0.27009518194267457	2.10911867077789	-0.3046241351901478	-0.2234305781986188	2.0504320781751937	-0.4731655437735184	-0.19514231601631435	2.0907920000521654	-0.6306821079666546	-0.21496900271770736	2.13187267278016	-0.5358197069693446
43	1.4333333333333333	-0.23685057748629307	1.8810629647373214	-0.37355468063169933	-0.25034666416625934	1.875484366968278	-0.3106668254523451	-0.2678603404119931	1.738392302704554	-0.4018005575490024													-0.22691123644794348	1.8844759600615975	-0.4435662113439036	-0.22264945640391087	1.7463080574111016	-0.47564646947875205	-0.21285407339885243	1.5931069629138388	-0.5325250741275281	-0.21503102902668386	1.5826029542170739	-0.5396177716602716	-0.21179477079094275	1.5932314502982465	-0.5694411342703987	-0.21240932311635427	1.5814475621863993	-0.5043245206780703	-0.23905097464515154	2.0423555396493724	-0.38914021810326954	-0.24561317466151456	2.1112468702026126	-0.4286586977254034	-0.25328673401602275	2.0349663420774724	-0.2996765520052208	-0.28676574406367605	2.057535634597298	-0.21164096860234619	-0.268511109363973	2.1064746604682716	-0.3002694710515995	-0.22057186877859752	2.0482569516403366	-0.4800985012647252	-0.19023602277195278	2.0881897373578635	-0.6317693818014776	-0.21112859208014853	2.1307735793509286	-0.5403249106931598
